<?xml version="1.0" encoding="UTF-8" standalone="no"?>
<svg width="40px" height="40px" viewBox="0 0 40 40" version="1.1" xmlns="http://www.w3.org/2000/svg" xmlns:xlink="http://www.w3.org/1999/xlink">
    <!-- Generator: Sketch 3.8.2 (29753) - http://www.bohemiancoding.com/sketch -->
    <title>nyu on</title>
    <desc>Created with Sketch.</desc>
    <defs></defs>
    <g id="MTN-Symbols" stroke="none" stroke-width="1" fill="none" fill-rule="evenodd">
        <g id="Icons" transform="translate(-501.000000, -311.000000)">
            <g id="nyu-on" transform="translate(501.000000, 311.000000)">
                <g id="empty" fill-opacity="0.995329484" fill="#344597">
                    <path d="M20,40 C31.045695,40 40,31.045695 40,20 C40,8.954305 31.045695,0 20,0 C8.954305,0 0,8.954305 0,20 C0,31.045695 8.954305,40 20,40 Z" id="Oval-14"></path>
                </g>
                <path d="M9,16.2371722 L9,23.7628278 L14.0171038,23.7628278 L20.2884835,30.0342075 L20.2884835,9.96579247 L14.0171038,16.2371722 L9,16.2371722 L9,16.2371722 Z M25.9327252,20 C25.9327252,17.7799316 24.6527366,15.8734322 22.7970353,14.945268 L22.7970353,25.0421893 C24.6527366,24.1265678 25.9327252,22.2200684 25.9327252,20 L25.9327252,20 Z M22.7970353,9 L22.7970353,11.5838084 C26.4212657,12.6624857 29.0684151,16.0239453 29.0684151,20 C29.0684151,23.9760547 26.4212657,27.3375143 22.7970353,28.4161916 L22.7970353,31 C27.8260547,29.8586089 31.5769669,25.368301 31.5769669,20 C31.5769669,14.631699 27.8260547,10.1413911 22.7970353,9 L22.7970353,9 Z" id="Fill-89" fill="#FFFFFF"></path>
            </g>
        </g>
    </g>
</svg>