<?xml version="1.0" encoding="UTF-8" standalone="no"?>
<svg width="40px" height="40px" viewBox="0 0 40 40" version="1.1" xmlns="http://www.w3.org/2000/svg" xmlns:xlink="http://www.w3.org/1999/xlink">
    <!-- Generator: Sketch 3.6.1 (26313) - http://www.bohemiancoding.com/sketch -->
    <title>gps on</title>
    <desc>Created with Sketch.</desc>
    <defs></defs>
    <g id="MTN-Symbols" stroke="none" stroke-width="1" fill="none" fill-rule="evenodd">
        <g id="Icons" transform="translate(-798.000000, -260.000000)">
            <g id="gps-on" transform="translate(798.000000, 260.000000)">
                <g id="Group-3" fill-opacity="0.995329484" fill="#344597">
                    <path d="M20,40 C31.045695,40 40,31.045695 40,20 C40,8.954305 31.045695,0 20,0 C8.954305,0 0,8.954305 0,20 C0,31.045695 8.954305,40 20,40 Z" id="Oval-14"></path>
                </g>
                <g id="SAT" transform="translate(9.000000, 9.000000)" fill="#FFFFFF">
                    <path d="M5.7965679,2.84855 C5.21446914,2.84855 4.69455556,2.4739375 4.50402469,1.916475 C4.38476543,1.566875 4.40691358,1.1911125 4.56677778,0.858475 C4.72635802,0.5258375 5.00462963,0.2762875 5.34934568,0.15525 C6.0495679,-0.089125 6.84888889,0.3084875 7.08939506,1.011425 C7.3352963,1.733625 6.95565432,2.5233875 6.24293827,2.7723625 C6.09897531,2.8229625 5.94876543,2.84855 5.7965679,2.84855 L5.7965679,2.84855 Z M5.7965679,1.124125 C5.75965432,1.124125 5.72274074,1.13045 5.68724691,1.1431 C5.60234568,1.1727125 5.53448148,1.2336625 5.49501235,1.3153125 C5.45639506,1.3969625 5.45071605,1.4889625 5.47996296,1.57435 C5.53902469,1.7465625 5.73154321,1.8460375 5.90588889,1.7848 C6.08080247,1.7235625 6.17393827,1.5297875 6.11345679,1.3526875 C6.06660494,1.216125 5.93967901,1.124125 5.7965679,1.124125 L5.7965679,1.124125 Z" id="Fill-1"></path>
                    <path d="M6.63223457,5.5024625 L5.59240741,2.4561125 L6.56806173,2.1145625 L7.60788889,5.1609125 L6.63223457,5.5024625" id="Fill-2"></path>
                    <path d="M5.02819753,20.4846625 L3.14162963,17.3693125 L4.02187654,16.822775 L5.90844444,19.938125 L5.02819753,20.4846625" id="Fill-3"></path>
                    <path d="M18.8270617,11.63225 L16.9404938,8.5169 L17.8204568,7.9703625 L19.7070247,11.0857125 L18.8270617,11.63225" id="Fill-4"></path>
                    <path d="M14.0101235,20.9251125 C13.2409012,20.9251125 12.5423827,20.5295125 12.1405926,19.86625 L7.0615679,11.4793 C6.43006173,10.4365375 6.75404938,9.0680375 7.78393827,8.4286375 L8.04403704,8.26735 C8.38818519,8.05345 8.7837284,7.940175 9.18693827,7.940175 C9.95616049,7.940175 10.654679,8.33635 11.0564691,8.999325 L16.1349259,17.3859875 C16.4415926,17.891125 16.5347284,18.486825 16.3981481,19.062975 C16.2615679,19.639125 15.9117407,20.1270125 15.4128395,20.4369375 L15.1541605,20.59765 C14.8088765,20.8118375 14.4133333,20.9251125 14.0101235,20.9251125 L14.0101235,20.9251125 Z M9.18693827,9.5079125 C9.06966667,9.5079125 8.95409877,9.5412625 8.85301235,9.604225 L8.59291358,9.7655125 C8.29135802,9.952675 8.19623457,10.354025 8.38165432,10.659925 L13.4601111,19.0465875 C13.638716,19.3421375 14.047321,19.4456375 14.3443333,19.26135 L14.6027284,19.1006375 C14.7500988,19.0095 14.852321,18.866325 14.892642,18.697275 C14.9323951,18.5285125 14.9051358,18.354 14.8154074,18.2059375 L9.73638272,9.8187 C9.61854321,9.6240625 9.41324691,9.5079125 9.18693827,9.5079125 L9.18693827,9.5079125 Z" id="Fill-5"></path>
                    <path d="M13.0966543,14.135225 L12.2873951,12.798925 L15.726321,10.66395 L16.5358642,12.00025 L13.0966543,14.135225" id="Fill-6"></path>
                    <path d="M7.05816049,17.8845125 L6.24861728,16.547925 L9.68754321,14.4126625 L10.4970864,15.74925 L7.05816049,17.8845125" id="Fill-7"></path>
                    <path d="M17.0268148,14.1401125 C16.766716,14.1401125 16.5120123,14.0072875 16.3663457,13.766075 L14.1134815,10.0461125 C14.0061481,9.868725 13.972358,9.6556875 14.0200617,9.453575 C14.0680494,9.251175 14.1935556,9.0766625 14.3684691,8.9679875 L19.3361852,5.8842625 C19.5116667,5.7750125 19.722358,5.741375 19.9214074,5.79025 C20.1210247,5.8388375 20.2936667,5.965625 20.400716,6.142725 L22.6530123,9.8626875 C22.8770494,10.2318375 22.7626173,10.7142625 22.3980247,10.9408125 L17.4308765,14.0245375 C17.3045185,14.103025 17.1648148,14.1401125 17.0268148,14.1401125 L17.0268148,14.1401125 Z M15.8376296,9.8948875 L17.2812346,12.2782625 L20.9288642,10.0139125 L19.4852593,7.6305375 L15.8376296,9.8948875 L15.8376296,9.8948875 Z" id="Fill-8"></path>
                    <path d="M3.11692593,22.7754625 C3.05644444,22.7754625 2.99624691,22.768275 2.93661728,22.7536125 C2.737,22.7053125 2.56407407,22.578525 2.45730864,22.401425 L0.204160494,18.681175 C0.0968271605,18.5037875 0.063037037,18.29075 0.111024691,18.0886375 C0.159012346,17.8862375 0.284518519,17.711725 0.459432099,17.60305 L5.42658025,14.519325 C5.79088889,14.29335 6.26764198,14.40835 6.49111111,14.7777875 L8.74397531,18.49775 C8.85130864,18.6751375 8.88509877,18.888175 8.83739506,19.0902875 C8.78940741,19.2926875 8.66390123,19.4672 8.48898765,19.575875 L3.52183951,22.6598875 C3.39888889,22.736075 3.25861728,22.7754625 3.11692593,22.7754625 L3.11692593,22.7754625 Z M1.92859259,18.5296625 L3.37248148,20.9136125 L7.01982716,18.6492625 L5.57565432,16.2656 L1.92859259,18.5296625 L1.92859259,18.5296625 Z" id="Fill-9"></path>
                    <path d="M7.04595062,9.302925 C5.10741975,9.302925 3.43523457,7.968925 2.97892593,6.05935 C2.87869136,5.6387375 3.13367901,5.2149625 3.54966667,5.1131875 L10.1836049,3.488525 C10.3820864,3.4393625 10.5933457,3.473 10.7688272,3.581675 C10.9440247,3.6900625 11.0695309,3.8642875 11.1180864,4.0664 C11.660716,6.338225 10.2767407,8.633625 8.03296296,9.1830375 C7.70869136,9.2623875 7.37675309,9.302925 7.04595062,9.302925 L7.04595062,9.302925 Z M4.77746914,6.425625 C5.24144444,7.222575 6.0927284,7.7351875 7.04595062,7.7351875 C7.25408642,7.7351875 7.46392593,7.7096 7.66893827,7.6592875 C8.82120988,7.3769625 9.6134321,6.3643875 9.6824321,5.2241625 L4.77746914,6.425625 L4.77746914,6.425625 Z" id="Fill-10"></path>
                </g>
            </g>
        </g>
    </g>
</svg>