<?xml version="1.0" encoding="utf-8"?>
<!-- Generator: Adobe Illustrator 17.1.0, SVG Export Plug-In . SVG Version: 6.00 Build 0)  -->
<!DOCTYPE svg PUBLIC "-//W3C//DTD SVG 1.1//EN" "http://www.w3.org/Graphics/SVG/1.1/DTD/svg11.dtd">
<svg version="1.1" id="Layer_1" xmlns="http://www.w3.org/2000/svg" xmlns:xlink="http://www.w3.org/1999/xlink" x="0px" y="0px"
	 viewBox="0 0 954 331.5" enable-background="new 0 0 954 331.5" xml:space="preserve">
<g>
	<polygon fill="#283B8E" points="44.9,44.1 90,44.1 88,54.5 73.1,54.5 73.1,106.6 60.3,106.6 60.3,54.5 44.9,54.5 	"/>
	<g>
		<path fill="#283B8E" d="M94.3,42.7l12.4-2.9c0.5,2.5,0.8,6.8,0.8,11.2v9.2c0,1.5-0.1,3.3-0.1,3.9c3.2-2.9,8.4-4.9,13.1-4.9
			c5.7,0,10.5,2.7,12,6.5c0.9,2.7,1.2,3.3,1.2,8.5v32.3h-11.9V75.7c0-4.5-1.2-6.3-4.7-6.3c-2.9,0-6.8,1.9-9.6,4.3v33.1H95.2V53.4
			C95.1,49,94.8,44.6,94.3,42.7"/>
		<path fill="#283B8E" d="M176.4,94.3l4.7,7.2c-5.3,4.3-10.9,6.4-17.3,6.4c-13.2,0-21.9-9.3-21.9-23.9c0-8.3,1.7-13.7,5.7-18.3
			c3.7-4.3,8.4-6.3,14.5-6.3c5.3,0,10.4,1.9,13.3,4.8c4.3,4.3,6.1,10.5,6.1,20.1v2.8h-26.7v0.4c0,7.1,3.5,11.2,9.7,11.2
			C168.8,99,172.7,97.4,176.4,94.3 M155.1,78.6h14v-0.5c0-3.5-0.4-5.2-1.5-6.9c-1.2-1.9-2.9-2.7-5.3-2.7c-4.5,0-7.2,3.6-7.2,10V78.6
			z"/>
		<path fill="#283B8E" d="M44.4,121.5h13.3l5.5,24.7c2.7,11.7,3.3,20.7,3.3,20.7c0.3-2.4,1.3-11.3,3.2-20l5.6-25.3h13.7l5.7,28
			c1.2,5.9,2.7,16.5,2.7,16.5c0.1-2,2.4-15.6,3.5-20.8l5.2-23.7h13.2l-15.2,63.2H90.5l-5.6-25.5c-2.1-9.7-2.9-17.6-2.9-18.1
			c0,0-1.2,8.8-3.1,18l-5.2,25.7H59.5L44.4,121.5z"/>
		<path fill="#283B8E" d="M156.1,171.8l4.7,7.2c-5.3,4.3-10.9,6.4-17.3,6.4c-13.2,0-21.9-9.3-21.9-23.9c0-8.3,1.7-13.7,5.7-18.3
			c3.7-4.3,8.4-6.3,14.5-6.3c5.3,0,10.4,1.9,13.3,4.8c4.3,4.3,6.1,10.5,6.1,20.1v2.8h-26.7v0.4c0,7.1,3.5,11.2,9.7,11.2
			C148.5,176.3,152.4,174.9,156.1,171.8 M134.8,156.1h14v-0.5c0-3.5-0.4-5.2-1.5-6.9c-1.2-1.9-2.9-2.7-5.3-2.7
			c-4.5,0-7.2,3.6-7.2,10V156.1z"/>
		<path fill="#283B8E" d="M167.9,143.4c2.9-1.9,4.3-2.5,7.5-3.7c4.5-1.9,8.4-2.7,12.7-2.7c7.7,0,13.1,2.9,14.8,8
			c0.7,1.9,0.8,3.3,0.8,8.3l-0.3,15.5v0.8c0,4.9,0.8,6.8,4.3,9.5l-6.4,7.3c-2.8-1.2-5.3-3.2-6.5-5.6c-1.7,1.6-1.9,1.9-2.8,2.4
			c-2.3,1.6-5.5,2.5-9.3,2.5c-10.3,0-15.9-5.2-15.9-14.4c0-10.8,7.5-15.9,22.1-15.9c0.9,0,1.5,0,2.7,0.1v-1.9c0-5.2-0.9-6.8-5.5-6.8
			c-3.9,0-8.4,1.9-13.3,5.2L167.9,143.4z M191.6,163.8h-0.5c-8.4,0-11.2,1.5-11.2,7.1c0,3.6,2.3,6,5.3,6c2.3,0,4.5-1.2,6.3-3.2
			L191.6,163.8z"/>
		<path fill="#283B8E" d="M237.9,137.1l-3.1,8h-7.7v23.5c0,5.9,1.1,7.3,5.2,7.3c1.1,0,2.1-0.3,4.3-0.9l1.5,7.2
			c-3.5,1.5-6.7,2.1-9.9,2.1c-6.1,0-11.1-2.7-12.4-6.8c-0.7-2-0.8-2.9-0.8-7.1V145h-4.5v-7.9h4.5c0-4.5,0-7.6,0.4-10.9l12.3-3.1
			c-0.4,4.3-0.7,9.2-0.7,13.9h10.9V137.1z"/>
		<path fill="#283B8E" d="M240.5,119.5l12.4-2.9c0.5,2.5,0.8,6.8,0.8,11.2v9.2c0,1.5-0.1,3.3-0.1,3.9c3.2-2.9,8.4-4.9,13.1-4.9
			c5.7,0,10.5,2.7,12,6.5c0.9,2.7,1.2,3.3,1.2,8.5v32.3H268v-30.9c0-4.5-1.2-6.3-4.7-6.3c-2.9,0-6.8,1.9-9.6,4.3v33.1h-12.3v-53.3
			C241.5,125.8,241.1,121.4,240.5,119.5"/>
		<path fill="#283B8E" d="M322.8,171.1l4.7,7.2c-5.3,4.3-10.9,6.4-17.3,6.4c-13.2,0-21.9-9.3-21.9-23.9c0-8.3,1.7-13.7,5.7-18.3
			c3.7-4.3,8.4-6.3,14.5-6.3c5.3,0,10.4,1.9,13.3,4.8c4.3,4.3,6.1,10.5,6.1,20.1v2.8h-26.7v0.4c0,7.1,3.5,11.2,9.7,11.2
			C315.2,175.8,319.1,174.2,322.8,171.1 M301.5,155.4h14v-0.5c0-3.5-0.4-5.2-1.5-6.9c-1.2-1.9-2.9-2.7-5.3-2.7
			c-4.5,0-7.2,3.6-7.2,10V155.4z"/>
		<path fill="#283B8E" d="M334.7,139.1l10.8-2.9c1.1,1.9,1.7,4,1.9,6.5c1.7-2.4,4.5-4.8,6.8-5.9c0.9-0.4,2.7-0.7,4-0.7
			c1.9,0,2.7,0.1,4.5,0.9l-3.3,10.7c-1.2-0.7-2.1-0.9-3.5-0.9c-2.7,0-5.2,1.2-7.3,3.9v32.7h-12.1v-30.8
			C336.4,146.3,335.6,141.7,334.7,139.1"/>
		<path fill="#283B8E" d="M89.3,203.4l-5.7,8.5c-3.2-2.4-6.5-3.5-10-3.5c-4.3,0-8.4,2.1-10.7,5.5c-2.4,3.6-3.5,8.8-3.5,16.1
			c0,8.5,0.7,13.3,2.7,16.8c2.5,4.5,6.7,7.1,12.1,7.1c3.5,0,6.4-0.9,9.5-3.1c0.4-0.3,0.8-0.7,1.2-0.9l5.7,7.9
			c-4.9,4-10.3,5.9-17.3,5.9c-8.7,0-15.3-2.8-20.4-8.7c-5.1-5.7-7.6-13.2-7.6-22.4c0-7.9,1.3-14,4.3-19.5c4.8-9.1,13.9-14.5,24-14.5
			C79.7,198.5,85.9,200.5,89.3,203.4"/>
		<path fill="#283B8E" d="M113.9,215.4c6.5,0,11.7,2.3,15.7,6.9c3.7,4.3,5.3,9.3,5.3,16.8c0,7.9-1.9,13.3-5.7,17.9
			c-3.5,4-8.1,6.4-15.2,6.4c-12.5,0-20.7-9.3-20.7-23.9S101.5,215.4,113.9,215.4 M114.1,224.3c-2.9,0-5.2,1.9-6.3,4.7
			c-0.8,2.4-1.2,5.7-1.2,10.3c0,5.3,0.5,9.3,1.5,11.6c1.1,2.5,3.7,3.7,6.1,3.7c5.2,0,7.5-4.7,7.5-15.6c0-6.3-0.8-10.3-2.4-12.4
			C118.1,225.1,116.3,224.3,114.1,224.3"/>
		<path fill="#283B8E" d="M141.7,217.8l10.9-2.9c0.8,1.2,1.2,2.4,1.6,4.7c3.2-3.1,7.1-4.7,11.2-4.7c3.7,0,6.9,1.2,9.3,3.7
			c0.7,0.7,0.9,0.9,1.9,2.3c4.3-4.3,8-6,13.1-6c3.6,0,7.1,1.1,9.1,2.9c2.7,2.3,3.5,4.9,3.5,11.2v32.8h-11.7v-30.4
			c0-5.5-0.7-6.5-3.7-6.5c-2.3,0-5.5,1.5-8,3.9v33.2h-11.5v-30c0-5.7-0.8-7.1-4.1-7.1c-2.3,0-5.3,1.2-7.9,3.5v33.6h-11.9v-32.1
			C143.5,223,143.1,220.1,141.7,217.8"/>
		<path fill="#283B8E" d="M213.6,215.9l10.7-1.9c0.4,1.6,0.7,2.9,0.8,4.3c2.1-2.5,6.7-4.3,11.3-4.3c3.2,0,6.5,1.1,9.1,2.8
			c4.9,3.3,8.5,9.3,8.5,19.9c0,9.9-1.5,15.1-6.4,20.1c-3.2,3.3-7.3,5.2-12.4,5.2c-3.6,0-7.1-0.9-9.6-2.4c0.1,1.1,0.1,3.7,0.1,3.7
			v14.4l-11.6,3.1v-53.3C214.4,221.5,214.3,219.9,213.6,215.9 M226.1,249.9c1.6,1.3,4.3,2.7,6.7,2.7c6,0,8.3-4,8.3-14.5
			c0-4.4-0.4-7.9-1.2-10.1c-0.9-2.5-2.8-3.9-5.7-3.9c-2.9,0-5.9,1.2-8,3.5V249.9z"/>
		<path fill="#283B8E" d="M261.9,220.5c2.9-1.9,4.3-2.5,7.5-3.7c4.5-1.9,8.4-2.7,12.7-2.7c7.7,0,13.1,2.9,14.8,8
			c0.7,1.9,0.8,3.3,0.8,8.3l-0.3,15.5v0.8c0,4.9,0.8,6.8,4.3,9.5l-6.4,7.3c-2.8-1.2-5.3-3.2-6.5-5.6c-1.7,1.6-1.9,1.9-2.8,2.4
			c-2.3,1.6-5.5,2.5-9.3,2.5c-10.3,0-15.9-5.2-15.9-14.4c0-10.8,7.5-15.9,22.1-15.9c0.9,0,1.5,0,2.7,0.1v-1.9c0-5.2-0.9-6.8-5.5-6.8
			c-3.9,0-8.4,1.9-13.3,5.2L261.9,220.5z M285.5,241h-0.5c-8.4,0-11.2,1.5-11.2,7.1c0,3.6,2.3,6,5.3,6c2.3,0,4.5-1.2,6.3-3.2
			L285.5,241z"/>
		<path fill="#283B8E" d="M307.2,217.5l10.7-3.1c1.1,1.9,1.7,3.9,1.7,5.7c2.8-2,3.3-2.4,5.3-3.5c2.4-1.2,5.6-2,8.3-2
			c5.2,0,9.6,2.7,11.1,6.7c0.7,1.7,0.9,3.7,0.9,6.5v33.7h-11.9v-30c0-5.2-0.9-6.8-4-6.8c-2.4,0-5.6,1.6-8.4,4.1v32.7h-12.1v-33.5
			C308.8,224.3,308.3,220.6,307.2,217.5"/>
		<path fill="#283B8E" d="M351.1,216.5l12.4-1.5l8,26.8c0.8,2.8,2.4,9.6,2.4,9.6s0.9-5.2,1.5-7.3c0.7-2.9,0.9-3.3,1.9-6.4l6.9-21.9
			h12.7L380,262.6c-3.2,8.9-5.5,12.8-8.8,15.2c-3.1,2.3-7.1,3.7-11.2,4.3l-4.1-7.9c2.7-0.7,5.7-1.9,7.5-3.1c1.3-0.9,2.4-2.3,3.5-3.7
			c1.2-1.9,1.5-2.7,2.7-5.5h-3.1c-0.7-2.1-1.1-3.1-1.9-5.5c-0.9-2.8-2.4-7.3-2.4-7.6L351.1,216.5z"/>
		<path fill="#0BA2DC" d="M281.9,7.5c-1.7,4.5-3.5,8.8-5.1,13.1c-4.3,11.3-5.5,23.1-4.5,35.1c0.7,8.1,1.2,16.3-1.5,24.1
			c-4.9,14.4-15.1,22.7-30.3,24.7c-15.5,2.1-28-3.7-36.7-16.4c-12.8-18.9-7.2-48.9,21.6-56.8c7.2-2,14.5-3.1,21.7-4.8
			c12.1-2.9,22.4-9.3,32-16.9C280,8.9,280.8,8.3,281.9,7.5"/>
		<path fill="#6D6F70" d="M282.8,27.9l-0.3,0.5c-0.5-0.4-0.8-0.4-1.3-0.4c-0.7,0-1.1,0.4-1.1,0.9c0,0.4,0.3,0.7,0.9,0.9l0.7,0.1
			c0.5,0.1,0.8,0.3,0.9,0.5c0.3,0.3,0.4,0.7,0.4,0.9c0,0.5-0.3,0.9-0.8,1.3c-0.4,0.3-0.7,0.4-1.2,0.4c-0.7,0-1.2-0.1-1.7-0.5
			l0.3-0.5c0.4,0.3,0.9,0.5,1.5,0.5c0.4,0,0.7,0,0.9-0.3c0.3-0.1,0.4-0.4,0.4-0.8c0-0.5-0.3-0.8-0.9-1.1l-0.5-0.1
			c-0.5-0.1-0.8-0.3-0.9-0.5c-0.3-0.3-0.4-0.5-0.4-0.9c0-0.9,0.7-1.6,1.7-1.6C281.7,27.4,282.3,27.7,282.8,27.9"/>
		<path fill="#6D6F70" d="M284.7,27.5h0.9l0.9,3.6c0.1,0.4,0.1,0.5,0.3,0.9c0.1-0.4,0.1-0.7,0.1-0.9l1.1-3.6h0.9l0.5,5.5h-0.7
			l-0.3-4c0-0.4,0-0.9,0-0.9c0,0.3-0.1,0.7-0.3,0.8l-1.2,4.1h-0.5l-1.1-3.9c-0.1-0.4-0.1-0.7-0.3-1.1c0,0,0,0.7,0,1.1l-0.3,3.9h-0.7
			L284.7,27.5z"/>
		<rect x="463.5" y="108.2" fill="#003399" width="153.6" height="153.6"/>
		<path fill="#FFFFFF" d="M492.9,222.1c-1.5-1.3-4.1-2.1-6.8-2.1c-4.3,0-8.1,2.3-10.3,6.3c-1.2,2.3-1.9,4.9-1.9,8.3
			c0,4,1.1,7.2,3.2,9.6c2.1,2.5,5.1,3.7,8.8,3.7c3.1,0,5.3-0.8,7.5-2.5l-2.5-3.3c-1.6,1.3-3.1,1.7-4.5,1.7c-2.3,0-4.1-1.1-5.2-3.1
			c-0.8-1.5-1.1-3.5-1.1-7.2c0-3.1,0.4-5.3,1.5-6.9c0.9-1.5,2.7-2.3,4.5-2.3c1.5,0,2.9,0.5,4.3,1.5L492.9,222.1z"/>
		<path fill="#FFFFFF" d="M496,220.1c0.3,0.8,0.4,2.7,0.4,4.5v22.8h5.2v-14.1c1.2-1.1,2.8-1.9,4.1-1.9c1.5,0,2,0.8,2,2.7v13.3h5.1
			v-13.9c0-1.9-0.1-2.5-0.5-3.7c-0.7-1.7-2.7-2.8-5.1-2.8c-2,0-4.3,0.8-5.6,2.1c0-0.3,0.1-1.1,0.1-1.6v-3.9c0-1.9-0.1-3.7-0.4-4.8
			L496,220.1z"/>
		<path fill="#FFFFFF" d="M516.7,229.9l2.3,3.7c2.1-1.5,4-2.3,5.7-2.3c1.9,0,2.3,0.7,2.3,2.9v0.8c-0.4,0-0.8,0-1.2,0
			c-6.3,0-9.5,2.1-9.5,6.8c0,3.9,2.4,6.1,6.8,6.1c1.6,0,3.1-0.4,4-1.1c0.4-0.3,0.8-0.7,1.2-1.1c0.5,1.1,1.6,1.9,2.8,2.4l2.8-3.2
			c-1.5-1.1-1.9-1.9-1.9-4v-0.3l0.1-6.7c0-2.1-0.1-2.8-0.4-3.6c-0.8-2.3-3.1-3.5-6.4-3.5c-1.9,0-3.5,0.4-5.5,1.2
			C518.5,229,517.7,229.3,516.7,229.9 M526.8,238.7l-0.1,4.3c-0.8,0.8-1.7,1.3-2.7,1.3c-1.3,0-2.3-1.1-2.3-2.5
			c0-2.4,1.2-3.1,4.8-3.1H526.8z"/>
		<path fill="#FFFFFF" d="M536,228.5c0.4,1.3,0.7,2.9,0.7,4.7v14.3h5.2v-14c1.2-1.1,2.5-1.7,3.6-1.7c1.3,0,1.7,0.7,1.7,2.9v12.8h5.1
			V233c0-1.2-0.1-2.1-0.4-2.8c-0.7-1.7-2.5-2.8-4.8-2.8c-1.2,0-2.5,0.3-3.6,0.8c-0.8,0.5-1.5,0.9-2.3,1.5c0-0.8-0.3-1.6-0.8-2.5
			L536,228.5z"/>
		<path fill="#FFFFFF" d="M556.1,228.5c0.4,1.3,0.7,2.9,0.7,4.7v14.3h5.2v-14c1.2-1.1,2.5-1.7,3.6-1.7c1.3,0,1.7,0.7,1.7,2.9v12.8
			h5.1V233c0-1.2-0.1-2.1-0.4-2.8c-0.7-1.7-2.5-2.8-4.8-2.8c-1.2,0-2.5,0.3-3.6,0.8c-0.8,0.5-1.5,0.9-2.3,1.5c0-0.8-0.3-1.6-0.7-2.5
			L556.1,228.5z"/>
		<path fill="#FFFFFF" d="M590.7,242.1c-1.6,1.3-3.2,2-5.1,2c-2.7,0-4.1-1.7-4.1-4.8v-0.1h11.5v-1.2c0-4.1-0.8-6.8-2.7-8.7
			c-1.3-1.3-3.5-2.1-5.7-2.1c-2.7,0-4.5,0.8-6.3,2.7s-2.4,4.3-2.4,7.9c0,6.3,3.6,10.3,9.3,10.3c2.8,0,5.2-0.9,7.5-2.7L590.7,242.1z
			 M581.6,235.4L581.6,235.4c0-2.8,1.1-4.4,3.1-4.4c1.1,0,1.7,0.4,2.3,1.2c0.4,0.7,0.7,1.5,0.7,2.9v0.3L581.6,235.4L581.6,235.4z"/>
		<path fill="#FFFFFF" d="M601.7,218.9l-5.3,1.2c0.1,1.7,0.3,3.3,0.3,6v14.7c0,2.8,0.1,3.5,0.4,4.4c0.7,1.7,2.4,2.7,4.5,2.7
			c1.1,0,2.1-0.1,3.1-0.5l-0.9-3.1c-0.3,0.1-0.4,0.1-0.5,0.1c-0.4,0-0.8-0.1-1.1-0.5c-0.3-0.5-0.4-1.1-0.4-4.4v-15.3
			C602,221.3,601.9,219.9,601.7,218.9"/>
		<path fill="#FFFFFF" d="M473.1,184.5l6.4,27.1h6.1l2.3-10.9c0.8-4,1.3-7.7,1.3-7.7c0.1,0.7,0.4,4.1,1.2,7.7l2.4,10.9h5.9l6.5-27.1
			h-5.7l-2.1,10.1c-0.5,2.7-1.3,8-1.5,8.9c0,0-0.7-4.5-1.2-7.1l-2.5-12h-5.9l-2.4,10.8c-0.8,3.7-1.3,7.5-1.3,8.5
			c0,0-0.4-3.9-1.5-8.8l-2.3-10.5H473.1z"/>
		<path fill="#FFFFFF" d="M519.6,206.1c-1.6,1.3-3.2,2-5.1,2c-2.7,0-4.1-1.7-4.1-4.8v-0.1h11.5v-1.2c0-4.1-0.8-6.8-2.7-8.7
			c-1.3-1.3-3.5-2.1-5.7-2.1c-2.7,0-4.5,0.8-6.3,2.7s-2.4,4.3-2.4,7.9c0,6.3,3.7,10.3,9.3,10.3c2.8,0,5.2-0.9,7.5-2.7L519.6,206.1z
			 M510.5,199.3L510.5,199.3c0-2.8,1.1-4.4,3.1-4.4c1.1,0,1.7,0.4,2.3,1.2c0.4,0.7,0.7,1.5,0.7,2.9v0.3L510.5,199.3L510.5,199.3z"/>
		<path fill="#FFFFFF" d="M524.7,193.9l2.3,3.7c2.1-1.5,4-2.3,5.7-2.3c1.9,0,2.3,0.8,2.3,2.9v0.8c-0.4,0-0.8,0-1.2,0
			c-6.3,0-9.5,2.1-9.5,6.8c0,4,2.4,6.1,6.8,6.1c1.6,0,2.9-0.4,4-1.1c0.4-0.3,0.8-0.7,1.2-1.1c0.5,1.1,1.6,1.9,2.8,2.4l2.8-3.2
			c-1.5-1.1-1.9-1.9-1.9-4v-0.4l0.1-6.7c0-2.1-0.1-2.8-0.4-3.6c-0.8-2.1-3.1-3.5-6.4-3.5c-1.9,0-3.5,0.4-5.3,1.2
			C526.4,192.9,525.6,193.3,524.7,193.9 M534.8,202.6l-0.1,4.3c-0.8,0.8-1.7,1.3-2.7,1.3c-1.3,0-2.3-1.1-2.3-2.5
			c0-2.4,1.2-3.1,4.8-3.1H534.8z"/>
		<path fill="#FFFFFF" d="M554.4,191.5h-4.7c0-2,0.1-4.1,0.3-6l-5.2,1.3c-0.1,1.5-0.1,2.8-0.1,4.7h-2v3.6h2v10.7
			c0,1.9,0,2.1,0.4,3.1c0.7,1.7,2.7,2.9,5.3,2.9c1.3,0,2.7-0.3,4.3-0.9l-0.7-3.1c-0.9,0.3-1.3,0.4-1.9,0.4c-1.7,0-2.3-0.7-2.3-3.2
			v-9.9h3.3L554.4,191.5z"/>
		<path fill="#FFFFFF" d="M556.7,183.9c0.3,0.8,0.4,2.7,0.4,4.5v22.8h5.2v-14.1c1.2-1.1,2.8-1.9,4.1-1.9c1.5,0,2,0.8,2,2.7v13.3h5.1
			v-13.9c0-1.9-0.1-2.5-0.5-3.7c-0.7-1.7-2.7-2.8-5.1-2.8c-2,0-4.3,0.8-5.6,2.1c0-0.3,0.1-1.1,0.1-1.6v-3.9c0-1.9-0.1-3.7-0.4-4.8
			L556.7,183.9z"/>
		<path fill="#FFFFFF" d="M590.8,206.1c-1.6,1.3-3.2,2-5.1,2c-2.7,0-4.1-1.7-4.1-4.8v-0.1h11.5v-1.2c0-4.1-0.8-6.8-2.7-8.7
			c-1.3-1.3-3.5-2.1-5.7-2.1c-2.7,0-4.5,0.8-6.3,2.7s-2.4,4.3-2.4,7.9c0,6.3,3.6,10.3,9.3,10.3c2.8,0,5.2-0.9,7.5-2.7L590.8,206.1z
			 M581.7,199.3L581.7,199.3c0-2.8,1.1-4.4,3.1-4.4c1.1,0,1.7,0.4,2.3,1.2c0.4,0.7,0.7,1.5,0.7,2.9v0.3L581.7,199.3L581.7,199.3z"/>
		<path fill="#FFFFFF" d="M596,192.3c0.4,1.1,0.7,3.1,0.7,5.7v13.2h5.2v-14c0.9-1.1,2-1.6,3.2-1.6c0.5,0,0.9,0.1,1.5,0.4l1.5-4.5
			c-0.8-0.4-1.2-0.4-2-0.4c-0.5,0-1.2,0.1-1.7,0.3c-0.9,0.4-2.1,1.5-2.9,2.5c-0.1-1.1-0.4-2-0.8-2.8L596,192.3z"/>
		<polygon fill="#FFFFFF" points="473.2,149 473.2,153.5 479.7,153.5 479.7,175.8 485.2,175.8 485.2,153.5 491.6,153.5 492.5,149 		
			"/>
		<path fill="#FFFFFF" d="M494.8,148.5c0.3,0.8,0.4,2.7,0.4,4.5v22.8h5.2v-14.1c1.2-1.1,2.8-1.9,4.1-1.9c1.5,0,2,0.7,2,2.7v13.3h5.1
			v-13.9c0-1.9-0.1-2.5-0.5-3.7c-0.7-1.7-2.7-2.8-5.2-2.8c-2,0-4.3,0.8-5.6,2.1c0-0.3,0.1-1.1,0.1-1.6v-4c0-1.9-0.1-3.7-0.4-4.8
			L494.8,148.5z"/>
		<path fill="#FFFFFF" d="M529.9,170.5c-1.6,1.3-3.2,2-5.1,2c-2.7,0-4.1-1.7-4.1-4.8v-0.1h11.5v-1.2c0-4.1-0.8-6.8-2.7-8.7
			c-1.3-1.3-3.5-2.1-5.7-2.1c-2.7,0-4.5,0.8-6.3,2.7s-2.5,4.3-2.5,7.9c0,6.1,3.6,10.3,9.3,10.3c2.8,0,5.2-0.9,7.5-2.7L529.9,170.5z
			 M520.7,163.8L520.7,163.8c0-2.8,1.1-4.4,3.1-4.4c1.1,0,1.7,0.4,2.3,1.2c0.4,0.7,0.7,1.5,0.7,2.9v0.3L520.7,163.8L520.7,163.8z"/>
		<path fill="#003399" d="M624.8,109.4c2.5,0,4.5,2,4.5,4.5c0,2.5-2.1,4.5-4.5,4.5c-2.5,0-4.5-2-4.5-4.5
			C620.3,111.4,622.4,109.4,624.8,109.4 M624.8,117.9c2.1,0,3.7-1.7,3.7-3.9s-1.6-3.9-3.7-3.9s-3.7,1.7-3.7,3.9
			S622.8,117.9,624.8,117.9 M623.1,111.4h2c1.2,0,1.9,0.5,1.9,1.5c0,0.9-0.7,1.3-1.5,1.5l1.5,2.4H626l-1.5-2.3h-0.9v2.3h-0.8v-5.3
			H623.1z M623.9,113.7h0.8c0.7,0,1.5,0,1.5-0.9c0-0.8-0.7-0.8-1.2-0.8h-1.1L623.9,113.7L623.9,113.7z"/>
	</g>
	<g>
		<path fill="#283B8E" d="M60.4,289.4h4.3L76,318.5h-4.3l-3.2-8.8H56.3l-3.2,8.8h-4L60.4,289.4z M57.6,306.5h9.9l-4.9-13.6h-0.1
			L57.6,306.5z"/>
		<path fill="#283B8E" d="M79.1,297.4h3.2v3.3h0.1c1.5-2.7,3.7-3.9,6.8-3.9c5.6,0,7.2,3.2,7.2,7.7v13.9h-3.3v-14.3
			c0-2.7-1.6-4.3-4.3-4.3c-4.1,0-6.3,2.8-6.3,6.5v11.9h-3.5V297.4z"/>
		<rect x="111.7" y="289.4" fill="#283B8E" width="3.9" height="29.1"/>
		<path fill="#283B8E" d="M121.5,289.4H132c2.5,0,6,0,7.7,1.1c1.9,1.2,3.5,3.2,3.5,6.1c0,3.1-1.6,5.5-4.3,6.5v0.1
			c3.6,0.8,5.6,3.5,5.6,7.1c0,4.3-3.1,8.4-8.8,8.4h-14.3V289.4z M125.3,301.9h7.7c4.4,0,6.1-1.6,6.1-4.7c0-4.1-2.8-4.7-6.1-4.7h-7.7
			V301.9z M125.3,315.3h9.7c3.3,0,5.5-2,5.5-5.2c0-3.7-3.1-4.8-6.3-4.8h-8.8v10H125.3z"/>
		<polygon fill="#283B8E" points="148.8,289.4 154,289.4 163.2,313.8 172.4,289.4 177.7,289.4 177.7,318.5 174,318.5 174,294.3 
			174,294.3 164.8,318.5 161.6,318.5 152.5,294.3 152.4,294.3 152.4,318.5 148.8,318.5 		"/>
		<path fill="#283B8E" d="M193.3,289.4h10.5c2.5,0,6,0,7.7,1.1c1.9,1.2,3.5,3.2,3.5,6.1c0,3.1-1.6,5.5-4.3,6.5v0.1
			c3.6,0.8,5.6,3.5,5.6,7.1c0,4.3-3.1,8.4-8.8,8.4h-14v-29.3H193.3z M197.2,301.9h7.7c4.4,0,6.1-1.6,6.1-4.7c0-4.1-2.8-4.7-6.1-4.7
			h-7.7V301.9z M197.2,315.3h9.7c3.3,0,5.5-2,5.5-5.2c0-3.7-3.1-4.8-6.3-4.8h-8.8v10H197.2z"/>
		<path fill="#283B8E" d="M237.5,318.5h-3.2v-3.3h-0.1c-1.5,2.7-3.7,3.9-6.8,3.9c-5.6,0-7.2-3.2-7.2-7.7v-13.9h3.5v14.3
			c0,2.7,1.6,4.3,4.3,4.3c4.1,0,6.3-2.8,6.3-6.5v-11.9h3.5v20.9H237.5z"/>
		<path fill="#283B8E" d="M244.4,311.8c0.1,3.1,2.8,4.1,5.6,4.1c2.1,0,5.1-0.5,5.1-3.2c0-5.5-13.7-1.7-13.7-9.9c0-4.3,4.1-6,7.9-6
			c4.7,0,8.3,1.5,8.7,6.5h-3.5c-0.3-2.7-2.7-3.6-4.9-3.6c-2.1,0-4.5,0.5-4.5,2.7c0,2.4,3.6,2.9,6.9,3.6c3.5,0.8,6.9,2,6.9,6
			c0,5.1-4.7,6.7-8.9,6.7c-4.7,0-8.7-1.9-8.9-7.1h3.5V311.8z"/>
		<path fill="#283B8E" d="M265.9,293.7h-3.5v-4.3h3.5V293.7z M262.4,297.4h3.5v21.1h-3.5V297.4z"/>
		<path fill="#283B8E" d="M270.5,297.4h3.2v3.3h0.1c1.5-2.7,3.7-3.9,6.8-3.9c5.6,0,7.2,3.2,7.2,7.7v13.9h-3.5v-14.3
			c0-2.7-1.6-4.3-4.3-4.3c-4.1,0-6.3,2.8-6.3,6.5v11.9h-3.5v-20.9H270.5z"/>
		<path fill="#283B8E" d="M310.4,311.8c-0.9,4.7-4.3,7.2-9.1,7.2c-6.7,0-9.9-4.7-10.1-11.1c0-6.4,4.1-10.9,9.9-10.9
			c7.5,0,9.7,6.9,9.5,12h-15.7c-0.1,3.6,2,6.9,6.5,6.9c2.9,0,4.8-1.3,5.5-4.1L310.4,311.8L310.4,311.8z M307.1,305.9
			c-0.3-3.3-2.7-6-6.1-6c-3.6,0-5.9,2.7-6,6H307.1z"/>
		<path fill="#283B8E" d="M316.8,311.8c0.1,3.1,2.8,4.1,5.6,4.1c2.1,0,5.1-0.5,5.1-3.2c0-5.5-13.7-1.7-13.7-9.9c0-4.3,4.1-6,7.9-6
			c4.7,0,8.3,1.5,8.7,6.5h-3.5c-0.3-2.7-2.7-3.6-4.9-3.6c-2.1,0-4.5,0.5-4.5,2.7c0,2.4,3.6,2.9,6.9,3.6c3.5,0.8,6.9,2,6.9,6
			c0,5.1-4.7,6.7-8.9,6.7c-4.7,0-8.7-1.9-8.9-7.1h3.5V311.8z"/>
		<path fill="#283B8E" d="M337.5,311.8c0.1,3.1,2.8,4.1,5.6,4.1c2.1,0,5.1-0.5,5.1-3.2c0-5.5-13.7-1.7-13.7-9.9c0-4.3,4.1-6,7.9-6
			c4.7,0,8.3,1.5,8.7,6.5h-3.5c-0.3-2.7-2.7-3.6-4.9-3.6c-2.1,0-4.5,0.5-4.5,2.7c0,2.4,3.6,2.9,6.9,3.6c3.5,0.8,6.9,2,6.9,6
			c0,5.1-4.7,6.7-8.9,6.7c-4.7,0-8.7-1.9-8.9-7.1h3.5V311.8z"/>
	</g>
</g>
<g>
	<g>
		<g>
			<path fill="#15A9DB" d="M866.9,115.6c5.4,13,24.4,13,29.8,0l0.3-0.7c1.3-3.7,1.3-7.8-0.3-11.7l-15-36.1l-15,36.1
				c-1.6,3.9-1.6,8-0.2,11.7L866.9,115.6z"/>
			<linearGradient id="SVGID_1_" gradientUnits="userSpaceOnUse" x1="677.9821" y1="148.4698" x2="818.4586" y2="199.5991">
				<stop  offset="0.2349" style="stop-color:#D41F2A"/>
				<stop  offset="1" style="stop-color:#F58738"/>
			</linearGradient>
			<path fill="url(#SVGID_1_)" d="M817.9,137.4c-6.9,0-12.7,4.1-15.5,9.9l-0.5,1.3l-9.2,22.1l-16.1-38.9c-5.4-13.1-24.7-13.1-30.2,0
				l-16.1,39l-16.1-39c-3.4-8.2-13.1-12.2-21.3-8.8c-8.2,3.4-12.2,13.1-8.8,21.3l31.1,75.2c5.4,13.3,24.9,13.3,30.3,0l16.1-38.8
				l15.9,38.3c5.1,14.1,25.6,14,30.7,0l14.2-34.2l7.5-18l5.2-12.3C834.9,145,827.2,137.4,817.9,137.4z"/>
			<g>
				<linearGradient id="SVGID_2_" gradientUnits="userSpaceOnUse" x1="802.3885" y1="175.7287" x2="932.7156" y2="175.7287">
					<stop  offset="0.4257" style="stop-color:#FCB830"/>
					<stop  offset="0.869" style="stop-color:#84C341"/>
				</linearGradient>
				<path fill="url(#SVGID_2_)" d="M900.2,213.8c-18,0-32.6-14.6-32.6-32.6c0-0.3,0-0.6,0-0.9v-25.8c0-14.6-10.1-27.8-24.2-31.6
					c-15.3-4.1-31.8,3.7-38.3,18.2l-0.7,1.6l-1.9,4.6c2.7-5.8,8.6-9.9,15.5-9.9c9.4,0,17,7.6,17.1,17l0,0l0,26.4
					c0,25.6,20.6,47.5,46.2,48.9c25.5,1.4,48.3-17.8,51.3-43.1c0.1-1.1,0.2-2.2,0.3-3.4C931.7,200.2,917.5,213.8,900.2,213.8z"/>
				<linearGradient id="SVGID_3_" gradientUnits="userSpaceOnUse" x1="900.1554" y1="213.7609" x2="900.1554" y2="121.735">
					<stop  offset="0" style="stop-color:#15A9DB"/>
					<stop  offset="0.9949" style="stop-color:#1556A6"/>
				</linearGradient>
				<path fill="url(#SVGID_3_)" d="M916.5,121.7C916.5,121.7,916.5,121.7,916.5,121.7c-9,0-16.3,7.3-16.3,16.3v10.5v32.3
					c0,8.9-7.4,16.3-16.3,16.3c-8.9,0-16.3-7.4-16.3-16.3v-0.5c0,0.3,0,0.6,0,0.9c0,18,14.6,32.6,32.6,32.6
					c17.3,0,31.5-13.5,32.6-30.6c0-0.7,0.1-1.5,0.1-2.2c0-0.1,0-0.1,0-0.2V138C932.8,129,925.5,121.7,916.5,121.7z"/>
			</g>
		</g>
	</g>
	<g>
		<g>
			<g>
				<g>
					<path fill="#1D2023" d="M774.6,261.3c0,0,0-0.1,0-0.1c-0.1-1.4-1.1-2.4-2.1-3.4c-0.2-0.2-0.4-0.4-0.7-0.7
						c0.4-0.1,0.9-0.4,1.3-0.7c1-0.8,1.5-1.8,1.5-3.2c0-1.5-0.6-2.6-1.5-3.3c-0.9-0.6-2-0.8-3.2-0.8h-4.6c-0.4,0-0.7,0.2-0.9,0.5
						c-0.1,0.2-0.2,0.3-0.2,0.5v11.2c0,0.2,0.1,0.3,0.1,0.5c0.2,0.3,0.5,0.6,1,0.6c0.6,0,1.1-0.5,1.1-1v-4h2.7
						c0.3,0.2,0.6,0.4,0.8,0.7c1.4,1.1,2.7,2.3,2.7,3.4c0,0.5,0.4,1,1,1c0,0,0,0,0,0C774.1,262.3,774.6,261.9,774.6,261.3
						C774.6,261.3,774.6,261.3,774.6,261.3z M769.9,255.5c-0.1,0-0.2,0-0.4,0h-2.9h-0.3v-0.3v-2.6v-1.7h3.3c0.7,0,1.4,0.1,1.9,0.4
						c0.6,0.4,0.9,1,0.9,1.9c0,0.9-0.4,1.6-1,1.9C771,255.4,770.5,255.5,769.9,255.5z"/>
				</g>
			</g>
			<path fill="#1D2023" d="M699.8,249.6c0.1-0.5,0.6-0.7,1.1-0.7c0.6,0,1.1,0.4,1.1,1c0,0.1-0.1,0.3-0.1,0.5l-3.6,10.8
				c-0.2,0.6-0.7,1.1-1.5,1.1c-0.8,0-1.3-0.5-1.5-1.1l-2.9-8.3l-2.8,8.3c-0.2,0.6-0.7,1.1-1.5,1.1c-0.8,0-1.3-0.5-1.5-1.1l-3.6-10.9
				c0-0.1-0.1-0.3-0.1-0.4c0-0.6,0.5-1.1,1.1-1.1c0.6,0,0.9,0.3,1.1,0.8l3.1,9.9l3.2-9.8c0.1-0.5,0.5-0.8,1.2-0.8
				c0.7,0,1,0.3,1.1,0.8l3.3,9.8L699.8,249.6z"/>
			<path fill="#1D2023" d="M705.5,260.2h7.4c0.5,0,0.9,0.4,0.9,0.9c0,0.5-0.4,1-0.9,1h-8.5c-0.6,0-1.1-0.5-1.1-1v-11
				c0-0.6,0.5-1,1.1-1h8.5c0.5,0,0.9,0.4,0.9,1c0,0.5-0.4,0.9-0.9,0.9h-7.4v4.5h6.2c0.5,0,0.9,0.4,0.9,0.9c0,0.5-0.4,1-0.9,1h-6.2
				V260.2z"/>
			<path fill="#1D2023" d="M723.2,259.2h-5.5l-0.9,2.4c-0.2,0.5-0.5,0.7-1.1,0.7c-0.7,0-1-0.5-1-1c0-0.1,0.1-0.4,0.1-0.5L719,250
				c0.2-0.6,0.6-1.1,1.5-1.1c0.9,0,1.3,0.5,1.5,1.1l4.1,10.8c0,0.1,0.1,0.4,0.1,0.5c0,0.6-0.4,1-1.1,1c-0.5,0-0.9-0.3-1-0.7
				L723.2,259.2z M718.3,257.5h4.4l-2.2-5.9L718.3,257.5z"/>
			<path fill="#1D2023" d="M731.3,251v10.3c0,0.6-0.5,1-1.1,1c-0.6,0-1.1-0.5-1.1-1V251h-3.6c-0.5,0-0.9-0.4-0.9-0.9
				c0-0.5,0.4-1,0.9-1h9.3c0.5,0,0.9,0.4,0.9,1c0,0.5-0.4,0.9-0.9,0.9H731.3z"/>
			<path fill="#1D2023" d="M737,249.9c0-0.6,0.5-1,1.1-1c0.6,0,1.1,0.5,1.1,1v5.5h7.7v-5.5c0-0.6,0.5-1,1.1-1c0.6,0,1.1,0.5,1.1,1
				v11.4c0,0.6-0.5,1-1.1,1c-0.6,0-1.1-0.5-1.1-1v-3.9h-7.7v3.9c0,0.6-0.5,1-1.1,1c-0.6,0-1.1-0.5-1.1-1V249.9z"/>
			<path fill="#1D2023" d="M753.6,260.2h7.4c0.5,0,0.9,0.4,0.9,0.9c0,0.5-0.4,1-0.9,1h-8.5c-0.6,0-1.1-0.5-1.1-1v-11
				c0-0.6,0.5-1,1.1-1h8.5c0.5,0,0.9,0.4,0.9,1c0,0.5-0.4,0.9-0.9,0.9h-7.4v4.5h6.2c0.5,0,0.9,0.4,0.9,0.9c0,0.5-0.4,1-0.9,1h-6.2
				V260.2z"/>
		</g>
		<g>
			<path fill="#1D2023" d="M792.4,259.3c0.5-0.6,0.8-1.5,0.8-2.6v-6.7c0-0.6,0.5-1,1.1-1c0.6,0,1.1,0.5,1.1,1v7
				c0,1.5-0.4,2.8-1.2,3.7c-1,1.1-2.5,1.7-4.4,1.7c-1.9,0-3.4-0.6-4.4-1.7c-0.8-0.9-1.2-2.2-1.2-3.7v-7c0-0.6,0.5-1,1.1-1
				c0.6,0,1.1,0.5,1.1,1v6.7c0,1.1,0.3,2,0.8,2.6c0.6,0.7,1.5,1,2.6,1C790.9,260.3,791.8,260,792.4,259.3z"/>
			<path fill="#1D2023" d="M803.8,256.9c-0.9-0.7-1.8-1.4-2.7-2.2c-0.5-0.5-1-0.9-1.3-1.3v8c0,0.5-0.4,1-1,1c-0.6,0-1-0.5-1-1v-11.5
				c0-0.5,0.5-1,1-1c0.6,0,1,0.5,1,1c0,1.3,2,2.8,4.1,4.5c0.9,0.7,1.8,1.4,2.7,2.2c0.5,0.4,1,0.9,1.3,1.3v-8c0-0.5,0.5-1,1-1
				s1,0.4,1,1v11.5c0,0.5-0.4,1-1,1s-1-0.5-1-1C807.9,259.9,805.3,258.1,803.8,256.9z"/>
			<path fill="#1D2023" d="M822.2,260.6c-1.5,1.2-3.3,1.5-5.1,1.5h-3.7c-0.6,0-1.1-0.5-1.1-1v-11c0-0.6,0.5-1,1.1-1h4
				c2.1,0,4,0.5,5.4,2c1,1,1.6,2.5,1.6,4.5C824.4,257.9,823.5,259.6,822.2,260.6z M814.5,260.3h2.4c1.5,0,2.7-0.3,3.7-1.1
				c1-0.8,1.5-2,1.5-3.6c0-1.5-0.4-2.5-1.1-3.3c-0.9-1-2.3-1.4-4-1.4h-2.6V260.3z"/>
			<path fill="#1D2023" d="M828.1,260.2h7.4c0.5,0,0.9,0.4,0.9,0.9c0,0.5-0.4,1-0.9,1h-8.5c-0.6,0-1.1-0.5-1.1-1v-11
				c0-0.6,0.5-1,1.1-1h8.5c0.5,0,0.9,0.4,0.9,1c0,0.5-0.4,0.9-0.9,0.9h-7.4v4.5h6.2c0.5,0,0.9,0.4,0.9,0.9c0,0.5-0.4,1-0.9,1h-6.2
				V260.2z"/>
			<path fill="#1D2023" d="M863,255.5c0.5,0,1,0.3,1,1c0,1.7-0.7,3.2-1.9,4.3c-1.1,1-2.7,1.5-4.5,1.5c-4,0-7-2.4-7-6.7
				c0-3.9,3.1-6.7,7.1-6.7c1.4,0,2.4,0.2,3.2,0.6c0.6,0.2,1.1,0.6,1.1,1.2c0,0.6-0.5,1-1,1c-0.4,0-0.7-0.3-1.6-0.5
				c-0.5-0.1-1-0.2-1.7-0.2c-2.7,0-4.9,2-4.9,4.8c0,2.9,2,4.8,4.8,4.8c1,0,1.9-0.2,2.6-0.7c0.8-0.5,1.3-1.3,1.5-2.3h-3.4
				c-0.5,0-0.9-0.4-0.9-1c0-0.5,0.4-1,0.9-1H863z"/>
			<path fill="#1D2023" d="M884.1,262.3c-3.8,0-6.9-2.8-6.9-6.7c0-3.9,3.1-6.7,6.9-6.7c3.7,0,6.9,2.8,6.9,6.7
				C891,259.5,887.9,262.3,884.1,262.3z M884.1,250.9c-2.6,0-4.6,2.1-4.6,4.7c0,2.6,2,4.7,4.6,4.7c2.6,0,4.6-2.1,4.6-4.7
				C888.8,253,886.8,250.9,884.1,250.9z"/>
			<path fill="#1D2023" d="M900.9,259.3c0.5-0.6,0.8-1.5,0.8-2.6v-6.7c0-0.6,0.5-1,1.1-1c0.6,0,1.1,0.5,1.1,1v7
				c0,1.5-0.4,2.8-1.2,3.7c-1,1.1-2.5,1.7-4.4,1.7c-1.9,0-3.4-0.6-4.4-1.7c-0.8-0.9-1.2-2.2-1.2-3.7v-7c0-0.6,0.5-1,1.1-1
				c0.6,0,1.1,0.5,1.1,1v6.7c0,1.1,0.3,2,0.8,2.6c0.6,0.7,1.5,1,2.6,1C899.4,260.3,900.3,260,900.9,259.3z"/>
			<path fill="#1D2023" d="M912.3,256.9c-0.9-0.7-1.8-1.4-2.7-2.2c-0.5-0.5-1-0.9-1.3-1.3v8c0,0.5-0.4,1-1,1c-0.6,0-1-0.5-1-1v-11.5
				c0-0.5,0.5-1,1-1c0.6,0,1,0.5,1,1c0,1.3,2,2.8,4.1,4.5c0.9,0.7,1.8,1.4,2.7,2.2c0.5,0.4,1,0.9,1.3,1.3v-8c0-0.5,0.5-1,1-1
				s1,0.4,1,1v11.5c0,0.5-0.4,1-1,1s-1-0.5-1-1C916.4,259.9,913.8,258.1,912.3,256.9z"/>
			<path fill="#1D2023" d="M930.6,260.6c-1.5,1.2-3.3,1.5-5.1,1.5h-3.7c-0.6,0-1.1-0.5-1.1-1v-11c0-0.6,0.5-1,1.1-1h4
				c2.1,0,4,0.5,5.4,2c1,1,1.6,2.5,1.6,4.5C932.8,257.9,931.9,259.6,930.6,260.6z M922.8,260.3h2.4c1.5,0,2.7-0.3,3.7-1.1
				c1-0.8,1.5-2,1.5-3.6c0-1.5-0.4-2.5-1.1-3.3c-0.9-1-2.3-1.4-4-1.4h-2.6V260.3z"/>
			<g>
				<g>
					<path fill="#1D2023" d="M849.2,261.3c0,0,0-0.1,0-0.1c-0.1-1.4-1.1-2.4-2.1-3.4c-0.2-0.2-0.4-0.4-0.7-0.7
						c0.4-0.1,0.9-0.4,1.3-0.7c1-0.8,1.5-1.8,1.5-3.2c0-1.5-0.6-2.6-1.5-3.3c-0.9-0.6-2-0.8-3.2-0.8h-4.6c-0.4,0-0.7,0.2-0.9,0.5
						c-0.1,0.2-0.2,0.3-0.2,0.5v11.2c0,0.2,0.1,0.3,0.1,0.5c0.2,0.3,0.5,0.6,1,0.6c0.6,0,1.1-0.5,1.1-1v-4h2.7
						c0.3,0.2,0.6,0.4,0.8,0.7c1.4,1.1,2.7,2.3,2.7,3.4c0,0.5,0.4,1,1,1c0,0,0,0,0,0C848.8,262.3,849.2,261.9,849.2,261.3
						C849.2,261.3,849.2,261.3,849.2,261.3z M844.6,255.5c-0.1,0-0.2,0-0.4,0h-2.9H841v-0.3v-2.6v-1.7h3.3c0.7,0,1.4,0.1,1.9,0.4
						c0.6,0.4,0.9,1,0.9,1.9c0,0.9-0.4,1.6-1,1.9C845.7,255.4,845.2,255.4,844.6,255.5z"/>
				</g>
			</g>
			<g>
				<g>
					<path fill="#1D2023" d="M876,261.3c0,0,0-0.1,0-0.1c-0.1-1.4-1.1-2.4-2.1-3.4c-0.2-0.2-0.4-0.4-0.7-0.7
						c0.4-0.1,0.9-0.4,1.3-0.7c1-0.8,1.5-1.8,1.5-3.2c0-1.5-0.6-2.6-1.5-3.3c-0.9-0.6-2-0.8-3.2-0.8h-4.6c-0.4,0-0.7,0.2-0.9,0.5
						c-0.1,0.2-0.2,0.3-0.2,0.5v11.2c0,0.2,0.1,0.3,0.1,0.5c0.2,0.3,0.5,0.6,1,0.6c0.6,0,1.1-0.5,1.1-1v-4h2.7
						c0.3,0.2,0.6,0.4,0.8,0.7c1.3,1.1,2.7,2.3,2.7,3.4c0,0.5,0.4,1,1,1c0,0,0,0,0,0C875.5,262.3,876,261.9,876,261.3
						C876,261.3,876,261.3,876,261.3z M871.3,255.5c-0.1,0-0.2,0-0.4,0H868h-0.3v-0.3v-2.6v-1.7h3.3c0.7,0,1.4,0.1,1.9,0.4
						c0.6,0.4,0.9,1,0.9,1.9c0,0.9-0.4,1.6-1,1.9C872.4,255.4,871.9,255.4,871.3,255.5z"/>
				</g>
			</g>
		</g>
	</g>
</g>
</svg>
