<?xml version="1.0" encoding="UTF-8" standalone="no"?>
<svg width="40px" height="40px" viewBox="0 0 40 40" version="1.1" xmlns="http://www.w3.org/2000/svg" xmlns:xlink="http://www.w3.org/1999/xlink">
    <!-- Generator: Sketch 3.8.2 (29753) - http://www.bohemiancoding.com/sketch -->
    <title>ipfs_on</title>
    <desc>Created with Sketch.</desc>
    <defs></defs>
    <g id="MTN-Symbols" stroke="none" stroke-width="1" fill="none" fill-rule="evenodd">
        <g id="Icons" transform="translate(-1012.000000, -61.000000)">
            <g id="ipfs_on" transform="translate(1012.000000, 61.000000)">
                <path d="M20,40 C31.045695,40 40,31.045695 40,20 C40,8.954305 31.045695,0 20,0 C8.954305,0 0,8.954305 0,20 C0,31.045695 8.954305,40 20,40 Z" id="Oval-14" fill-opacity="0.995329484" fill="#344597"></path>
                <g id="ipfs-logo" transform="translate(9.000000, 7.000000)">
                    <g id="Layer_1">
                        <polygon id="Shape" fill="#469EA2" points="0.0408284024 19.3673469 11.4727811 25.8010204 22.9047337 19.3673469 22.9047337 6.5 11.4727811 0.0663265306 0.0408284024 6.5"></polygon>
                        <path d="M10.3023669,1.60510204 L2.00059172,6.2744898 C2.01419931,6.42010676 2.01419931,6.56662793 2.00059172,6.7122449 L10.2887574,11.3816327 C10.9883476,10.8774754 11.943605,10.8774754 12.6431953,11.3816327 L20.9313609,6.7122449 C20.9177534,6.56662793 20.9177534,6.42010676 20.9313609,6.2744898 L12.6568047,1.60510204 C11.9572145,2.10925926 11.0019571,2.10925926 10.3023669,1.60510204 L10.3023669,1.60510204 L10.3023669,1.60510204 Z M21.7343195,7.99897959 L13.4325444,12.7214286 C13.5248313,13.5615904 13.052619,14.3643883 12.2621302,14.7112245 L12.2757396,23.9969388 C12.4099561,24.0546399 12.5376626,24.1257696 12.6568047,24.2091837 L20.9449704,19.5397959 C20.8526835,18.6996341 21.3248958,17.8968362 22.1153846,17.55 L22.1153846,8.21122449 C21.9827086,8.15058965 21.8552727,8.07961067 21.7343195,7.99897959 L21.7343195,7.99897959 L21.7343195,7.99897959 Z M1.2112426,8.05204082 C1.09210047,8.13545485 0.964393945,8.20658459 0.830177515,8.26428571 L0.830177515,17.6030612 C1.63153229,17.9381136 2.10880143,18.7495086 2.00059172,19.5928571 L10.2887574,24.2622449 C10.4078995,24.1788309 10.5356061,24.1077011 10.6698225,24.05 L10.6698225,14.7112245 C9.86846771,14.3761721 9.39119857,13.5647771 9.49940828,12.7214286 L1.2112426,8.05204082 L1.2112426,8.05204082 L1.2112426,8.05204082 Z" id="Shape" fill="#6ACAD1"></path>
                        <path d="M11.4727811,1.45918367 L21.6934911,7.21632653 L21.6934911,18.7173469 L11.4727811,24.4744898 L1.25207101,18.7173469 L1.25207101,7.20306122 L11.4727811,1.45918367 L11.4727811,1.45918367 Z M11.4727811,0.0928571429 L0.0408284024,6.52653061 L0.0408284024,19.3938776 L11.4727811,25.827551 L22.9047337,19.3938776 L22.9047337,6.52653061 L11.4727811,0.0928571429 L11.4727811,0.0928571429 L11.4727811,0.0928571429 Z" id="Shape" fill="#469EA2"></path>
                        <path d="M11.5544379,15.122449 L11.3911243,15.122449 C10.8239964,15.1238628 10.2796787,14.904895 9.87865741,14.5140149 C9.47763613,14.1231348 9.25298741,13.5925821 9.25443787,13.0397959 L9.25443787,12.8806122 C9.25298741,12.3278261 9.47763613,11.7972733 9.87865741,11.4063932 C10.2796787,11.0155131 10.8239964,10.7965454 11.3911243,10.7979592 L11.5544379,10.7979592 C12.1215657,10.7965454 12.6658834,11.0155131 13.0669047,11.4063932 C13.467926,11.7972733 13.6925747,12.3278261 13.6911243,12.8806122 L13.6911243,13.0397959 C13.6925747,13.5925821 13.467926,14.1231348 13.0669047,14.5140149 C12.6658834,14.904895 12.1215657,15.1238628 11.5544379,15.122449 L11.5544379,15.122449 Z" id="Shape" fill="#469EA2"></path>
                        <path d="M11.5544379,23.6785714 L11.3911243,23.6785714 C10.6180972,23.6763027 9.90449488,24.0824671 9.52662722,24.7397959 L11.4727811,25.827551 L13.4189349,24.7397959 C13.0410673,24.0824671 12.3274649,23.6763027 11.5544379,23.6785714 L11.5544379,23.6785714 L11.5544379,23.6785714 Z" id="Shape" fill="#469EA2"></path>
                        <path d="M22.9183432,17.244898 L22.8366864,17.244898 C22.2695585,17.2434842 21.7252408,17.4624519 21.3242195,17.853332 C20.9231983,18.2442121 20.6985495,18.7747649 20.7,19.327551 L20.7,19.4867347 C20.6980428,19.8402913 20.7919401,20.1880779 20.9721893,20.494898 L22.9183432,19.3938776 L22.9183432,17.244898 L22.9183432,17.244898 L22.9183432,17.244898 Z" id="Shape" fill="#469EA2"></path>
                        <path d="M20.9721893,5.43877551 C20.7935356,5.7462303 20.6997522,6.0935952 20.7,6.44693878 L20.7,6.60612245 C20.6985495,7.15890858 20.9231983,7.68946137 21.3242195,8.08034147 C21.7252408,8.47122158 22.2695585,8.69018929 22.8366864,8.68877551 L22.9183432,8.68877551 L22.9183432,6.52653061 L20.9721893,5.43877551 L20.9721893,5.43877551 L20.9721893,5.43877551 Z" id="Shape" fill="#469EA2"></path>
                        <path d="M11.4727811,0.0928571429 L9.52662722,1.18061224 C9.9026715,1.84142262 10.6158666,2.25242936 11.3911243,2.25510204 L11.5544379,2.25510204 C12.3274649,2.25737075 13.0410673,1.85120638 13.4189349,1.19387755 L11.4727811,0.0928571429 L11.4727811,0.0928571429 L11.4727811,0.0928571429 Z" id="Shape" fill="#469EA2"></path>
                        <path d="M1.98698225,5.4255102 L0.0408284024,6.52653061 L0.0408284024,8.68877551 L0.122485207,8.68877551 C0.689613085,8.69018929 1.23393078,8.47122158 1.63495206,8.08034147 C2.03597334,7.68946137 2.26062206,7.15890858 2.2591716,6.60612245 L2.2591716,6.44693878 C2.25456037,6.09001245 2.16115814,5.73950753 1.98698225,5.4255102 L1.98698225,5.4255102 L1.98698225,5.4255102 Z" id="Shape" fill="#469EA2"></path>
                        <path d="M0.122485207,17.244898 L0.0408284024,17.244898 L0.0408284024,19.3938776 L1.98698225,20.494898 C2.16563596,20.1874432 2.25941941,19.8400783 2.2591716,19.4867347 L2.2591716,19.327551 C2.26062206,18.7747649 2.03597334,18.2442121 1.63495206,17.853332 C1.23393078,17.4624519 0.689613085,17.2434842 0.122485207,17.244898 L0.122485207,17.244898 L0.122485207,17.244898 Z" id="Shape" fill="#469EA2"></path>
                        <polygon id="Shape" fill-opacity="0.15" fill="#000000" points="11.4727811 25.8938776 11.4727811 13.0132653 0.0408284024 6.57959184 0.0408284024 19.4602041"></polygon>
                        <polygon id="Shape" fill-opacity="0.05" fill="#000000" points="22.9183432 19.3408163 22.9183432 6.47346939 11.4863905 12.9071429 11.4863905 25.7877551"></polygon>
                    </g>
                </g>
            </g>
        </g>
    </g>
</svg>