<?xml version="1.0" encoding="UTF-8" standalone="no"?>
<svg
   xmlns:dc="http://purl.org/dc/elements/1.1/"
   xmlns:cc="http://creativecommons.org/ns#"
   xmlns:rdf="http://www.w3.org/1999/02/22-rdf-syntax-ns#"
   xmlns:svg="http://www.w3.org/2000/svg"
   xmlns="http://www.w3.org/2000/svg"
   viewBox="0 0 105.70667 36"
   height="36"
   width="105.70667"
   xml:space="preserve"
   id="svg2"
   version="1.1"><metadata
     id="metadata8"><rdf:RDF><cc:Work
         rdf:about=""><dc:format>image/svg+xml</dc:format><dc:type
           rdf:resource="http://purl.org/dc/dcmitype/StillImage" /></cc:Work></rdf:RDF></metadata><defs
     id="defs6"><clipPath
       id="clipPath20"
       clipPathUnits="userSpaceOnUse"><path
         id="path18"
         d="M 0,270 V 0 h 792.809 v 270 z" /></clipPath></defs><g
     transform="matrix(1.3333333,0,0,-1.3333333,0,36)"
     id="g10"><g
       transform="scale(0.1)"
       id="g12"><g
         id="g14"><g
           clip-path="url(#clipPath20)"
           id="g16"><path
             id="path22"
             style="fill:#4f2987;fill-opacity:1;fill-rule:nonzero;stroke:none"
             d="m 340.016,212.883 h 31.121 l 71.836,-94.438 v 94.438 h 33.3 V 59.5117 H 447.582 L 373.305,157.012 V 59.5117 H 340.016 V 212.883" /><path
             id="path24"
             style="fill:#4f2987;fill-opacity:1;fill-rule:nonzero;stroke:none"
             d="m 552.055,119.988 -58.926,92.895 h 39.445 l 36.59,-61.574 37.238,61.574 h 38.321 L 585.805,120.637 V 59.5117 h -33.75 v 60.4763" /><path
             id="path26"
             style="fill:#4f2987;fill-opacity:1;fill-rule:nonzero;stroke:none"
             d="m 659.184,125.242 v 87.641 h 33.75 v -86.77 c 0,-24.968 12.453,-37.8982 33.066,-37.8982 20.578,0 33.086,12.5002 33.086,36.7972 v 87.871 h 33.723 V 126.34 c 0,-46.4377 -26.075,-69.2306 -67.266,-69.2306 -41.164,0 -66.359,22.9961 -66.359,68.1326" /><path
             id="path28"
             style="fill:#ffffff;fill-opacity:1;fill-rule:nonzero;stroke:none"
             d="m 29.3984,17.9102 h 201.746 v 233.34 H 29.3984 Z" /><path
             id="path30"
             style="fill:#4f2987;fill-opacity:1;fill-rule:nonzero;stroke:none"
             d="m 118.977,129.176 c -27.6723,16.512 -24.9028,40.094 -13.434,57.426 0.246,0.363 0.324,0.968 0.246,1.671 -0.48,4.122 -4.977,14.551 -6.8554,17.387 -0.4805,0.719 -0.8906,0.66 -0.9375,0.149 -0.1523,-4.715 -5.5195,-16.532 -13.7344,-30.141 -8.7305,-14.484 -8.75,-45.918 34.5933,-47.145 0.415,-0.011 0.532,0.415 0.122,0.653 z m 7.402,1.219 c -16.543,35.343 16.547,58.171 21.937,63.121 0.762,0.695 0.571,1.336 0.586,2.129 0,11.128 -6.375,29.132 -8.464,31.707 -0.293,0.398 -0.543,0.226 -0.665,-0.176 -2.824,-10.969 -17.882,-27.317 -20.918,-30.895 -25.5464,-30.375 -19.6988,-48.871 6.973,-66.316 0.34,-0.215 0.75,0.031 0.551,0.43 z m 5.391,1.503 c 7.816,37.489 38.328,38.403 41.058,45.516 4.258,11.094 -3.535,30.781 -5.527,33.109 -0.192,0.25 -0.469,0.09 -0.567,-0.117 -4.136,-9.082 -10.843,-17.73 -15.738,-21.703 -6.926,-5.578 -33.43,-25.223 -19.875,-56.832 0.156,-0.391 0.555,-0.293 0.649,0.027 z m 5.425,-3.253 c 49.403,-1.79 52.899,43.23 53.094,60.078 0.023,0.976 -0.469,1.062 -0.703,0.379 -1.465,-3.516 -7.887,-16.071 -25.699,-23.704 -15.907,-6.824 -25.473,-22.308 -27.141,-36.222 -0.074,-0.344 0.219,-0.531 0.449,-0.531 z m 11.239,-16.875 v 11.335 H 109.469 V 111.77 h 38.965 z M 125.652,31.5625 c 0.317,-1.8945 4.414,-2.8242 5.332,0 l 9.438,74.7925 h -22.926 l 8.156,-74.7925 z M 269.984,0 H 0 V 270 H 269.984 V 0" /></g></g></g></g></svg>