<?xml version="1.0" encoding="UTF-8" standalone="no"?>
<svg width="40px" height="40px" viewBox="0 0 40 40" version="1.1" xmlns="http://www.w3.org/2000/svg" xmlns:xlink="http://www.w3.org/1999/xlink">
    <!-- Generator: Sketch 3.8.2 (29753) - http://www.bohemiancoding.com/sketch -->
    <title>purple_on</title>
    <desc>Created with Sketch.</desc>
    <defs></defs>
    <g id="MTN-Symbols" stroke="none" stroke-width="1" fill="none" fill-rule="evenodd">
        <g id="Icons" transform="translate(-1012.000000, -161.000000)">
            <g id="purple_on" transform="translate(1012.000000, 161.000000)">
                <path d="M20,40 C31.045695,40 40,31.045695 40,20 C40,8.954305 31.045695,0 20,0 C8.954305,0 0,8.954305 0,20 C0,31.045695 8.954305,40 20,40 Z" id="Oval-14" fill-opacity="0.995329484" fill="#344597"></path>
                <g id="cloud-4" transform="translate(6.000000, 11.000000)">
                    <ellipse id="Oval-80" fill="#99004C" cx="7.72413793" cy="12.825" rx="6.43678161" ry="4.90833333"></ellipse>
                    <ellipse id="Oval-80" fill="#99004C" cx="12.2298851" cy="12.825" rx="6.43678161" ry="4.90833333"></ellipse>
                    <ellipse id="Oval-80" fill="#99004C" cx="17.3793103" cy="12.825" rx="6.43678161" ry="4.90833333"></ellipse>
                    <ellipse id="Oval-80" fill="#99004C" cx="20.5977011" cy="12.825" rx="6.43678161" ry="4.90833333"></ellipse>
                    <ellipse id="Oval-80" fill="#99004C" cx="20.5977011" cy="10.6083333" rx="6.43678161" ry="4.90833333"></ellipse>
                    <ellipse id="Oval-80" fill="#99004C" cx="10.9425287" cy="9.34166667" rx="6.43678161" ry="4.90833333"></ellipse>
                    <ellipse id="Oval-80" fill="#99004C" cx="14.8045977" cy="5.85833333" rx="6.43678161" ry="4.90833333"></ellipse>
                    <g id="Layer_1" fill="#FFFFFF">
                        <path d="M14.765625,1.72727273 C17.6384141,1.72727273 19.9677734,3.96732955 20.0993516,6.77080114 C20.3608672,6.73366477 20.6206328,6.69318182 20.890625,6.69318182 C23.8505859,6.69318182 26.25,9.06143466 26.25,11.9829545 C26.25,14.9044744 23.8505859,17.2727273 20.890625,17.2727273 L6.34375,17.2727273 C3.80761719,17.2727273 1.75,15.2435057 1.75,12.7386364 C1.75,10.6048608 3.25051563,8.82528409 5.26367188,8.34283523 C5.26197656,8.29565909 5.25,8.25177557 5.25,8.20454545 C5.25,6.53459659 6.62063281,5.18181818 8.3125,5.18181818 C8.79785156,5.18181818 9.24902344,5.30326705 9.65578906,5.50060795 C10.3205703,3.32300284 12.3440078,1.72727273 14.765625,1.72727273 L14.765625,1.72727273 Z M14.765625,0 C12.1953125,0 9.90527344,1.34268466 8.65429688,3.46803977 C8.54147656,3.45789205 8.42701563,3.45454545 8.3125,3.45454545 C6.04980469,3.45454545 4.14596875,5.00639205 3.63327344,7.08791761 C1.44407813,8.10333807 0,10.2775966 0,12.7386364 C0,16.1915085 2.84544531,19 6.34375,19 L20.890625,19 C24.8110625,19 28,15.8524233 28,11.9829545 C28,8.33608807 25.1664766,5.33025568 21.5571016,4.99624432 C20.6804063,2.09161932 17.9665391,0 14.765625,0 L14.765625,0 L14.765625,0 Z" id="Shape"></path>
                    </g>
                </g>
            </g>
        </g>
    </g>
</svg>