<?xml version="1.0" encoding="UTF-8" standalone="no"?>
<svg width="40px" height="40px" viewBox="0 0 40 40" version="1.1" xmlns="http://www.w3.org/2000/svg" xmlns:xlink="http://www.w3.org/1999/xlink">
    <!-- Generator: Sketch 3.8.2 (29753) - http://www.bohemiancoding.com/sketch -->
    <title>sdr on</title>
    <desc>Created with Sketch.</desc>
    <defs></defs>
    <g id="MTN-Symbols" stroke="none" stroke-width="1" fill="none" fill-rule="evenodd">
        <g id="Icons" transform="translate(-396.000000, -54.000000)">
            <g id="sdr-on" transform="translate(396.000000, 54.000000)">
                <g>
                    <circle id="Oval-14" fill-opacity="0.995329484" fill="#344597" cx="20" cy="20" r="20"></circle>
                    <g id="Group" transform="translate(12.000000, 7.000000)" fill="#FFFFFF">
                        <path d="M5.15862069,2.57291667 C5.07586207,2.57291667 5.02068966,2.62708333 4.96551724,2.68125 C3.33793103,4.27916667 3.33793103,6.85208333 4.96551724,8.45 C5.07586207,8.58541667 5.32413793,8.58541667 5.43448276,8.45 C5.54482759,8.34166667 5.54482759,8.125 5.43448276,7.98958333 C4.05517241,6.63541667 4.05517241,4.46875 5.43448276,3.11458333 C5.62758621,2.95208333 5.43448276,2.54583333 5.15862069,2.57291667 L5.15862069,2.57291667 L5.15862069,2.57291667 Z M3.83448276,1.24583333 C3.83448276,1.24583333 3.80689655,1.24583333 3.77931034,1.27291667 C3.72413793,1.3 3.64137931,1.32708333 3.6137931,1.38125 C1.24137931,3.68333333 1.2137931,7.44791667 3.5862069,9.77708333 C3.72413793,9.9125 3.94482759,9.88541667 4.05517241,9.75 C4.16551724,9.64166667 4.16551724,9.45208333 4.02758621,9.31666667 C1.90344828,7.23125 1.90344828,3.9 4.02758621,1.81458333 C4.33103448,1.65208333 4.13793103,1.19166667 3.83448276,1.24583333 L3.83448276,1.24583333 L3.83448276,1.24583333 Z M2.56551724,0 C2.53793103,0 2.51034483,0 2.48275862,0.0270833333 C2.42758621,0.0541666667 2.34482759,0.08125 2.31724138,0.135416667 C-0.772413793,3.14166667 -0.772413793,8.01666667 2.31724138,11.0229167 C2.45517241,11.1583333 2.70344828,11.1583333 2.8137931,10.9958333 C2.92413793,10.8604167 2.89655172,10.6708333 2.7862069,10.5625 C-0.0551724138,7.8 -0.0551724138,3.33125 2.7862069,0.56875 C2.97931034,0.40625 2.84137931,0 2.56551724,0 L2.56551724,0 L2.56551724,0 Z" id="Shape"></path>
                        <path d="M10.8413793,2.57291667 C10.9241379,2.57291667 10.9793103,2.62708333 11.0344828,2.68125 C12.662069,4.27916667 12.662069,6.85208333 11.0344828,8.45 C10.9241379,8.58541667 10.6758621,8.58541667 10.5655172,8.45 C10.4551724,8.34166667 10.4551724,8.125 10.5655172,7.98958333 C11.9448276,6.63541667 11.9448276,4.46875 10.5655172,3.11458333 C10.3724138,2.95208333 10.5655172,2.54583333 10.8413793,2.57291667 L10.8413793,2.57291667 L10.8413793,2.57291667 Z M12.1655172,1.24583333 C12.1655172,1.24583333 12.1931034,1.24583333 12.2206897,1.27291667 C12.2758621,1.3 12.3586207,1.32708333 12.3862069,1.38125 C14.7586207,3.68333333 14.7862069,7.44791667 12.4137931,9.77708333 C12.2758621,9.9125 12.0551724,9.88541667 11.9448276,9.75 C11.8344828,9.64166667 11.8344828,9.45208333 11.9724138,9.31666667 C14.0965517,7.23125 14.0965517,3.9 11.9724138,1.81458333 C11.6689655,1.65208333 11.862069,1.19166667 12.1655172,1.24583333 L12.1655172,1.24583333 L12.1655172,1.24583333 Z M13.4344828,0 C13.462069,0 13.4896552,0 13.5172414,0.0270833333 C13.5724138,0.0541666667 13.6551724,0.08125 13.6827586,0.135416667 C16.7724138,3.14166667 16.7724138,8.01666667 13.6827586,11.0229167 C13.5448276,11.1583333 13.2965517,11.1583333 13.1862069,10.9958333 C13.0758621,10.8604167 13.1034483,10.6708333 13.2137931,10.5625 C16.0551724,7.8 16.0551724,3.33125 13.2137931,0.56875 C13.0206897,0.40625 13.1586207,0 13.4344828,0 L13.4344828,0 L13.4344828,0 Z" id="Shape"></path>
                        <path d="M1.6,25.9729167 L3.00689655,21.3958333 L12.9655172,21.3958333 L14.4,25.9729167 L15.5586207,25.9729167 L9.71034483,7.17708333 C10.1793103,6.74375 10.4827586,6.12083333 10.4827586,5.41666667 C10.4827586,4.0625 9.37931034,2.97916667 8,2.97916667 C6.62068966,2.97916667 5.51724138,4.0625 5.51724138,5.41666667 C5.51724138,6.12083333 5.82068966,6.74375 6.28965517,7.17708333 L0.44137931,25.9729167 L1.6,25.9729167 L1.6,25.9729167 Z M12.6344828,20.3125 L8.68965517,20.3125 L11.2275862,15.7083333 L12.6344828,20.3125 L12.6344828,20.3125 Z M8,19.2833333 L5.62758621,14.95 L10.3724138,14.95 L8,19.2833333 L8,19.2833333 Z M8,4.0625 C8.77241379,4.0625 9.37931034,4.65833333 9.37931034,5.41666667 C9.37931034,6.175 8.77241379,6.77083333 8,6.77083333 C7.22758621,6.77083333 6.62068966,6.175 6.62068966,5.41666667 C6.62068966,4.65833333 7.22758621,4.0625 8,4.0625 L8,4.0625 Z M7.25517241,7.74583333 C7.47586207,7.82708333 7.72413793,7.85416667 8,7.85416667 C8.27586207,7.85416667 8.49655172,7.82708333 8.74482759,7.74583333 L10.6482759,13.89375 L5.35172414,13.89375 L7.25517241,7.74583333 L7.25517241,7.74583333 Z M4.8,15.7083333 L7.33793103,20.3125 L3.36551724,20.3125 L4.8,15.7083333 L4.8,15.7083333 Z" id="Shape"></path>
                    </g>
                </g>
                <g id="noun_236682" transform="translate(12.000000, 7.000000)"></g>
            </g>
        </g>
    </g>
</svg>