<?xml version="1.0" encoding="UTF-8" standalone="no"?>
<svg width="40px" height="40px" viewBox="0 0 40 40" version="1.1" xmlns="http://www.w3.org/2000/svg" xmlns:xlink="http://www.w3.org/1999/xlink">
    <!-- Generator: Sketch 3.6.1 (26313) - http://www.bohemiancoding.com/sketch -->
    <title>weather on</title>
    <desc>Created with Sketch.</desc>
    <defs></defs>
    <g id="MTN-Symbols" stroke="none" stroke-width="1" fill="none" fill-rule="evenodd">
        <g id="Icons" transform="translate(-796.000000, -161.000000)">
            <g id="weather-on" transform="translate(796.000000, 161.000000)">
                <g id="Group-3">
                    <path d="M20,40 C31.045695,40 40,31.045695 40,20 C40,8.954305 31.045695,0 20,0 C8.954305,0 0,8.954305 0,20 C0,31.045695 8.954305,40 20,40 Z" id="Oval-14" fill-opacity="0.995329484" fill="#344597"></path>
                    <g id="partlycloudy" transform="translate(5.000000, 6.000000)">
                        <rect id="Rectangle-1" opacity="0.0229127799" x="0" y="0" width="28.6028603" height="28.6956522"></rect>
                        <g id="Imported-Layers" transform="translate(0.572057, 3.443478)" fill="#FFFFFF">
                            <path d="M23.7568453,11.8934936 C23.4521953,11.8934936 23.1480335,11.9261333 22.8507067,11.9909254 C21.8996518,9.77337877 19.6811745,8.29387765 17.2805906,8.29387765 C14.2848651,8.29387765 11.7939604,10.4193513 11.2979276,13.3710461 L11.2769341,13.3710461 C9.31819051,13.3710461 7.72463639,14.9762342 7.72463639,16.9497143 C7.72463639,18.92222 9.31819051,20.5269209 11.2769341,20.5269209 L23.7568453,20.5269209 C26.1193479,20.5269209 28.0414749,18.5904649 28.0414749,16.2102073 C28.0414749,13.8299496 26.1193479,11.8934936 23.7568453,11.8934936 L23.7568453,11.8934936 Z M27.1797644,16.2102073 C27.1797644,18.1135365 25.6443086,19.6622142 23.7568453,19.6622142 L11.2769341,19.6622142 C9.79322977,19.6622142 8.58634688,18.4452916 8.58634688,16.9497143 C8.58634688,15.4531626 9.79322977,14.2357529 11.2769341,14.2357529 C11.376043,14.2357529 11.4844281,14.2435474 11.6177125,14.2601108 L12.055647,14.3146726 L12.0995869,13.8742811 C12.3695732,11.1861391 14.5973267,9.15907159 17.2805906,9.15907159 C19.4756333,9.15907159 21.4460942,10.5625759 22.1837965,12.652487 L22.3229396,13.0470855 L22.7198634,12.9199371 C23.0572243,12.8127622 23.4058143,12.7586876 23.7568453,12.7586876 C25.6443086,12.7586876 27.1797644,14.3068781 27.1797644,16.2102073 L27.1797644,16.2102073 Z" id="Fill-1"></path>
                            <path d="M6.1867395,6.36862629 C6.35712871,6.55959252 6.65299078,6.57713023 6.84437351,6.40759899 C7.03624445,6.23758059 7.05382042,5.94236239 6.88343121,5.75139616 L4.14597474,2.67498868 C3.97607375,2.48402245 3.68021168,2.46648473 3.48834073,2.63650313 C3.29695801,2.80603438 3.27938204,3.10125258 3.44928303,3.29270597 L6.1867395,6.36862629" id="Fill-2"></path>
                            <path d="M5.85963127,13.9765844 L2.84144759,16.7787215 C2.65397064,16.9531244 2.64322977,17.2483426 2.81752475,17.4358987 C2.99230795,17.6229676 3.28865825,17.6336851 3.4761352,17.4592823 L6.49431888,14.6571452 C6.68179583,14.4832295 6.6925367,14.1875242 6.51824172,14.0004552 C6.34345852,13.8133862 6.04710823,13.8026688 5.85963127,13.9765844" id="Fill-3"></path>
                            <path d="M17.9797235,3.29027017 C17.8049403,3.10320121 17.50859,3.09248372 17.321113,3.26639939 L14.3029293,6.0685365 C14.1154524,6.24293933 14.1047115,6.53815753 14.2794947,6.72571365 C14.4537897,6.91278261 14.75014,6.9235001 14.9376169,6.74909727 L17.9558006,3.94696016 C18.1432776,3.77304449 18.1540184,3.47733913 17.9797235,3.29027017" id="Fill-4"></path>
                            <path d="M10.846323,5.10250071 C11.1016627,5.12247422 11.3267327,4.93004651 11.3467497,4.67526249 L11.6684875,0.574360162 C11.6885046,0.319576138 11.4956572,0.0945087968 11.2403175,0.0745352882 C10.9849778,0.0545617796 10.7594196,0.246989484 10.7394025,0.501773509 L10.418153,4.60267583 C10.3981359,4.85794702 10.590495,5.0825272 10.846323,5.10250071" id="Fill-5"></path>
                            <path d="M5.15268692,9.93414115 L5.15268692,9.93414115 C5.17612154,9.67984429 4.9866917,9.45234115 4.73184022,9.42847037 L0.626876067,9.04751223 C0.371536361,9.02412861 0.143537043,9.21265905 0.120102424,9.46744307 C0.0961795835,9.7222271 0.285609423,9.94973023 0.540460908,9.97311385 L4.64542506,10.354072 C4.90076477,10.3779428 5.12876408,10.1889252 5.15268692,9.93414115" id="Fill-6"></path>
                            <path d="M6.91858313,10.0836989 C7.0879959,8.20034317 8.76113008,6.80560768 10.6485934,6.97465177 C11.6020895,7.06039171 12.4296244,7.52903842 12.9940082,8.21447078 C13.1995493,8.01278706 13.4236429,7.82084651 13.6667771,7.64449505 C12.9573916,6.78904429 11.9204097,6.20445379 10.727197,6.09776603 C8.35541823,5.88536481 6.25264937,7.63816198 6.03978491,10.0047792 C5.90210652,11.5344576 6.58952202,12.9481923 7.73147149,13.8167964 C7.8603619,13.5956263 8.03416866,13.3539956 8.2650973,13.1172364 C7.35651758,12.4259581 6.80922158,11.3006214 6.91858313,10.0836989" id="Fill-7"></path>
                        </g>
                    </g>
                </g>
            </g>
        </g>
    </g>
</svg>